<?xml version="1.0" encoding="UTF-8"?>
<svg version="1.1" xmlns="http://www.w3.org/2000/svg" width="655" height="491">
<path d="M0 0 C2.3125 2.125 2.3125 2.125 4 5 C4.86625 6.4540625 4.86625 6.4540625 5.75 7.9375 C10.02280625 18.8466996 6.06698548 32.29484773 3.625 43.25 C3.30335864 44.73929696 2.98304072 46.22888037 2.6640625 47.71875 C2.05615676 50.55155775 1.44170563 53.38279799 0.82128906 56.21289062 C-0.173139 60.79837459 -1.10662934 65.39386531 -2 70 C-0.99308105 69.62415771 -0.99308105 69.62415771 0.03417969 69.24072266 C6.44608079 66.85008317 12.86279147 64.47277599 19.28463745 62.10899353 C23.29640901 60.63156747 27.30154794 59.13741816 31.3046875 57.63671875 C70.35475485 43.17259827 110.74218265 31.69832927 151.3104248 22.34529114 C155.17554545 21.45049012 158.99994177 20.47203009 162.8125 19.375 C173.83227382 16.34249081 188.43272938 12.85387945 199.375 17.4375 C202 19 202 19 203 20 C203.3125 22.8125 203.3125 22.8125 203 26 C200.20812159 29.40701724 197.33592868 30.9908015 193.31640625 32.69140625 C192.22392578 33.16126953 191.13144531 33.63113281 190.00585938 34.11523438 C188.86955078 34.59283203 187.73324219 35.07042969 186.5625 35.5625 C184.31250852 36.51909854 182.06376212 37.47863211 179.81640625 38.44140625 C178.82068604 38.86107666 177.82496582 39.28074707 176.79907227 39.71313477 C173.95947136 40.94858341 173.95947136 40.94858341 171.32397461 42.65991211 C169 44 169 44 166 44 C167.47797262 40.32943063 169.47615477 38.58914217 172.625 36.25 C173.85089844 35.32960938 173.85089844 35.32960938 175.1015625 34.390625 C175.72804688 33.93171875 176.35453125 33.4728125 177 33 C115.69225253 41.81251389 54.59988003 68.72461513 -2 93 C-3.21268555 93.34160156 -4.42537109 93.68320313 -5.67480469 94.03515625 C-9.93646651 96.55335407 -10.35526081 98.42906787 -11.59486389 103.06484985 C-11.82652756 104.04891815 -12.05819122 105.03298645 -12.296875 106.046875 C-12.70425148 107.61663589 -12.70425148 107.61663589 -13.11985779 109.21810913 C-14.02320911 112.72251644 -14.88587519 116.23573344 -15.75 119.75 C-16.38005483 122.21939683 -17.01334546 124.68797002 -17.6496582 127.15576172 C-18.6705928 131.12097399 -19.68956951 135.08652879 -20.69477844 139.05575562 C-24.61946129 154.54649132 -28.77232715 169.97533493 -32.92077637 185.40734863 C-34.1699735 190.05636315 -35.41221991 194.70721703 -36.65332031 199.35839844 C-37.24206697 201.56272049 -37.83095202 203.76700552 -38.41990852 205.97127151 C-38.78528042 207.33942171 -39.15032123 208.70766037 -39.51498222 210.07600021 C-41.91520724 219.07946186 -44.41205926 228.04901789 -47 237 C-39.58416142 236.59227605 -32.16839915 236.18318411 -24.75268555 235.77319336 C-22.23610088 235.63421514 -19.71949965 235.49553665 -17.20288086 235.35717773 C-13.5609897 235.15689903 -9.91914891 234.95574243 -6.27734375 234.75390625 C-4.50960098 234.65594254 -4.50960098 234.65594254 -2.70614624 234.55599976 C3.38533322 234.2147484 9.47251728 233.84458813 15.55859375 233.41796875 C21.37581872 233.01898959 27.16940381 232.78560669 33 232.75 C34.31291016 232.7190625 34.31291016 232.7190625 35.65234375 232.6875 C41.20810762 232.65408187 45.13177361 233.2388225 50 236 C53.16926079 239.66496568 54.910283 245.1866568 55.27734375 249.99609375 C54.57687582 255.05722116 50.81329841 258.43022307 47.109375 261.63671875 C32.70150431 272.33896802 15.88114811 280.18220712 0.04110718 288.53659058 C-9.7675396 293.71063989 -19.47355915 299.02748148 -29.10180664 304.53222656 C-34.94858531 307.8666229 -40.84633604 311.07224454 -46.8125 314.1875 C-47.57353027 314.59186279 -48.33456055 314.99622559 -49.11865234 315.4128418 C-53.05035522 317.49658537 -57.00090322 319.47773524 -61.0390625 321.34765625 C-62.67206114 322.14805784 -64.30487984 322.94882669 -65.9375 323.75 C-66.68942627 324.07121826 -67.44135254 324.39243652 -68.21606445 324.72338867 C-71.86768639 326.56913895 -73.60225965 328.09029762 -75.26416016 331.89135742 C-76.35183882 335.56506885 -77.21173726 339.25419409 -78 343 C-78.29382568 344.26247559 -78.58765137 345.52495117 -78.89038086 346.82568359 C-79.80555447 350.8129212 -80.66226344 354.80850392 -81.5 358.8125 C-81.64996429 359.51990326 -81.79992859 360.22730652 -81.95443726 360.95614624 C-84.23483465 371.73228997 -86.20208124 382.52678422 -87.7578125 393.43481445 C-87.89574219 394.3805835 -88.03367187 395.32635254 -88.17578125 396.30078125 C-88.28833252 397.11716064 -88.40088379 397.93354004 -88.5168457 398.7746582 C-89.02319214 401.10681978 -89.84437837 402.92107089 -91 405 C-91.99 404.67 -92.98 404.34 -94 404 C-94.11020529 382.64051883 -94.0981867 361.33870228 -93 340 C-106.86646369 347.74091865 -120.60344162 355.67547055 -134.24816895 363.80064392 C-134.81982788 364.14100174 -135.39148682 364.48135956 -135.98046875 364.83203125 C-136.55470581 365.17396011 -137.12894287 365.51588898 -137.72058105 365.86817932 C-141.86138166 368.33072497 -146.01483901 370.77087953 -150.17578125 373.19921875 C-150.77271286 373.54761307 -151.36964447 373.89600739 -151.98466492 374.25495911 C-153.19498259 374.96127054 -154.40530466 375.66757444 -155.6156311 376.37387085 C-166.94525966 382.98824536 -178.19801602 389.71796114 -189.39892578 396.54785156 C-198.01349962 401.80034174 -206.65610798 407.00424539 -215.3125 412.1875 C-237.3357624 425.36145377 -237.3357624 425.36145377 -259.15844727 438.86328125 C-262.42982329 440.92367349 -265.71245932 442.96551529 -269 445 C-270.32209473 445.81960205 -270.32209473 445.81960205 -271.67089844 446.65576172 C-274.58437626 448.45189662 -277.50939201 450.22783312 -280.4375 452 C-281.80563843 452.84703491 -281.80563843 452.84703491 -283.20141602 453.71118164 C-289.41623445 457.43893602 -295.19536695 460.73642108 -302.62182617 459.59814453 C-305.43818246 458.89236489 -308.13468436 458.02044932 -310.875 457.0625 C-311.81085938 456.77826172 -312.74671875 456.49402344 -313.7109375 456.20117188 C-318.26286727 454.66751163 -320.45577859 453.87928698 -323.04296875 449.69921875 C-325.46610696 440.3330478 -327.50239843 431.51504595 -323.45703125 422.35546875 C-320.97314182 418.33995849 -317.71107583 415.83367612 -314 413 C-312.36629813 411.53044999 -310.74125139 410.05122109 -309.125 408.5625 C-305.24478178 405 -305.24478178 405 -303 405 C-303 404.34 -303 403.68 -303 403 C-301.42366615 401.60946976 -299.78595085 400.28827212 -298.125 399 C-293.27341971 395.12620932 -288.8902551 391.03644751 -284.58203125 386.5546875 C-282.5874779 384.5812565 -280.58924186 382.77053616 -278.45996094 380.95336914 C-273.44385493 376.57989277 -268.75728684 371.90094055 -264.05859375 367.19140625 C-263.13208511 366.26585434 -262.20557648 365.34030243 -261.25099182 364.38670349 C-259.30217639 362.43935145 -257.35515263 360.49023087 -255.40942383 358.53979492 C-252.93636139 356.06103605 -250.45883467 353.58679569 -247.97993374 351.1138773 C-245.58703799 348.72549855 -243.19799682 346.3332792 -240.80859375 343.94140625 C-239.92924667 343.0640834 -239.0498996 342.18676056 -238.14390564 341.28285217 C-233.77729308 336.89974642 -229.54136064 332.46382172 -225.52134705 327.75946045 C-222.82493274 324.64101726 -219.96045101 321.67897246 -217.125 318.6875 C-212.2347467 313.49241316 -207.59570282 308.18647242 -203.140625 302.609375 C-200.84879535 299.81568484 -198.44768188 297.15791222 -196 294.5 C-191.90447038 290.04365865 -188.02189802 285.46442999 -184.22265625 280.75390625 C-182.72342625 278.89633656 -181.21000617 277.05014233 -179.68359375 275.21484375 C-170.7779977 265.99426811 -170.7779977 265.99426811 -166 255 C-167.09957031 254.63648438 -168.19914063 254.27296875 -169.33203125 253.8984375 C-183.10811732 249.25490067 -196.47381085 244.69362766 -203.8125 231.25 C-206.25133729 225.96317838 -207.37796295 220.76875455 -208 215 C-208.08378906 214.26136719 -208.16757813 213.52273437 -208.25390625 212.76171875 C-209.04504578 198.80193422 -201.28739894 186.15902574 -192.65625 175.90234375 C-185.38748928 167.96015373 -177.04645667 159.87916177 -168 154 C-167.34 154 -166.68 154 -166 154 C-166 153.34 -166 152.68 -166 152 C-164.07695764 150.42013722 -162.1618546 148.9840205 -160.125 147.5625 C-159.50077148 147.12292969 -158.87654297 146.68335938 -158.23339844 146.23046875 C-144.751535 136.86787992 -130.4389714 128.77705882 -116 121 C-115.15937012 120.54544434 -114.31874023 120.09088867 -113.45263672 119.62255859 C-110.72425334 118.15381666 -107.98854287 116.69970516 -105.25 115.25 C-104.30979004 114.74742676 -103.36958008 114.24485352 -102.40087891 113.72705078 C-96.77181667 110.77646 -91.10199332 108.1690937 -85.21484375 105.79296875 C-68.30106586 99.48284214 -68.30106586 99.48284214 -56.9375 86.3125 C-55.88903129 83.80997273 -54.93837592 81.29616408 -54.03466797 78.73779297 C-52.51521036 74.71721778 -50.5577118 70.94938773 -48.62475586 67.11450195 C-41.16194986 52.23486667 -34.61112281 36.92042985 -28.00390625 21.64794922 C-27.43997665 20.34878571 -27.43997665 20.34878571 -26.86465454 19.02337646 C-26.15739337 17.3929394 -25.45308388 15.76121749 -24.75228882 14.12799072 C-19.78971908 2.69289259 -19.78971908 2.69289259 -14 0 C-9.05098519 -1.31973728 -4.94665178 -1.11698589 0 0 Z M-46 114 C-45 116 -45 116 -45 116 Z M-47 116 C-47.3810791 116.72251953 -47.7621582 117.44503906 -48.15478516 118.18945312 C-56.53647192 134.04629226 -65.14981318 149.70925816 -74.3046875 165.13720703 C-75.9944504 167.99062866 -77.67082175 170.85152494 -79.34375 173.71484375 C-88.56903867 189.47516733 -98.29951543 204.87505392 -108.25366211 220.18261719 C-111.62665931 225.38335608 -114.86544853 230.65183977 -118 236 C-109.31184574 237.06671373 -100.6147349 237.31660714 -91.875 237.5625 C-90.42707378 237.60580156 -88.97915698 237.64941906 -87.53125 237.69335938 C-84.02093422 237.79921106 -80.51051087 237.90080239 -77 238 C-76.68530762 236.58134644 -76.68530762 236.58134644 -76.36425781 235.1340332 C-71.97076346 215.40624764 -67.28816834 195.77504488 -62.0625 176.25 C-61.81186798 175.31316376 -61.56123596 174.37632751 -61.30300903 173.41110229 C-58.61819088 163.40652327 -55.85898651 153.42606564 -52.9765625 143.4765625 C-52.73850388 142.65329468 -52.50044525 141.83002686 -52.25517273 140.98181152 C-51.13715939 137.12305673 -50.00780951 133.26824746 -48.85766602 129.41894531 C-48.4609761 128.06839584 -48.06440301 126.71781204 -47.66796875 125.3671875 C-47.32016357 124.20300293 -46.9723584 123.03881836 -46.61401367 121.83935547 C-45.7354944 118.94418006 -45.7354944 118.94418006 -47 116 Z M-83 131 C-101.33431819 141.10444967 -119.70563574 151.46653222 -136.44921875 164.09765625 C-138.93083496 165.9484175 -141.46985819 167.69794693 -144.02294922 169.44799805 C-160.10374826 180.58609037 -174.0556884 193.64661135 -180.1875 212.6875 C-179.98372024 216.28760908 -179.83777712 216.70361175 -177.375 219.0625 C-169.91526632 224.62015019 -156.67490479 231.9727949 -147.02954102 230.75024414 C-144.41076737 229.7821831 -143.70863931 228.66491215 -142.1875 226.34375 C-141.67598389 225.57788574 -141.16446777 224.81202148 -140.63745117 224.02294922 C-140.09709229 223.19037598 -139.5567334 222.35780273 -139 221.5 C-137.83076391 219.74129801 -136.66016497 217.98350139 -135.48828125 216.2265625 C-134.90127441 215.34129883 -134.31426758 214.45603516 -133.70947266 213.54394531 C-131.73472376 210.60523016 -129.68620045 207.72790306 -127.61547852 204.85644531 C-114.97981617 187.32335664 -103.72823764 168.78318196 -92.44873047 150.35986328 C-91.02796914 148.04555943 -89.59495406 145.7392139 -88.16015625 143.43359375 C-87.31456013 142.06023065 -86.46947385 140.68655346 -85.625 139.3125 C-85.23707275 138.6942334 -84.84914551 138.0759668 -84.44946289 137.43896484 C-83.57063829 135.9954628 -82.77542451 134.50158171 -82 133 C-82.495 132.01 -82.495 132.01 -83 131 Z M-138.86181641 264.39086914 C-140.55644361 266.53172989 -142.10908409 268.53553637 -143.46875 270.890625 C-146.24140225 275.47753685 -149.41553908 279.71211751 -152.625 284 C-153.82112521 285.627007 -155.01641898 287.25462553 -156.2109375 288.8828125 C-162.12227039 296.89581487 -168.18180701 304.79657865 -174.23876953 312.69970703 C-175.75567323 314.68089176 -177.26790579 316.66547074 -178.77734375 318.65234375 C-183.92173762 325.39758628 -189.21024634 332.00322792 -194.6237793 338.53442383 C-197.38626669 341.89289976 -199.88964452 345.17635941 -202 349 C-197.19925716 347.56010124 -192.9007457 345.51506333 -188.50390625 343.1484375 C-187.43800514 342.58184921 -187.43800514 342.58184921 -186.35057068 342.0038147 C-184.08554671 340.79852996 -181.82398954 339.58690102 -179.5625 338.375 C-178.07900184 337.58421167 -176.59527957 336.79384363 -175.11132812 336.00390625 C-169.37807351 332.94963617 -163.64825847 329.88909438 -157.92944336 326.80786133 C-150.84772263 322.99881837 -143.72438513 319.34171275 -136.4375 315.9375 C-125.57623209 310.80836114 -114.83658153 305.45199963 -104.11499023 300.03881836 C-103.18528664 299.57082069 -103.18528664 299.57082069 -102.23680115 299.09336853 C-100.5515499 298.24491908 -98.86752652 297.39403201 -97.18359375 296.54296875 C-94 295 -94 295 -92.09056091 294.29963684 C-88.26007374 292.95945812 -88.26007374 292.95945812 -85.92993164 289.8269043 C-85.84090576 289.00101807 -85.75187988 288.17513184 -85.66015625 287.32421875 C-85.54736328 286.41349609 -85.43457031 285.50277344 -85.31835938 284.56445312 C-85.23392578 283.61505859 -85.14949219 282.66566406 -85.0625 281.6875 C-84.95099609 280.74970703 -84.83949219 279.81191406 -84.72460938 278.84570312 C-84.1979974 274.20432179 -83.95534093 269.67389086 -84 265 C-85.51013672 264.91697632 -85.51013672 264.91697632 -87.05078125 264.83227539 C-90.86787161 264.62226073 -94.68491802 264.41145583 -98.50195312 264.20043945 C-100.13866041 264.11006224 -101.77537878 264.01988556 -103.41210938 263.92993164 C-105.00205937 263.84252346 -106.59197458 263.75448014 -108.18185425 263.665802 C-109.77080098 263.57860333 -111.35994049 263.49485037 -112.94924927 263.41452026 C-116.8402393 263.21142037 -120.70354896 262.94528897 -124.57763672 262.52587891 C-125.66334961 262.42067177 -125.66334961 262.42067177 -126.77099609 262.31333923 C-128.73855127 262.11822506 -130.70320503 261.8944553 -132.66748047 261.66870117 C-136.19012427 261.70362886 -136.19012427 261.70362886 -138.86181641 264.39086914 Z M-56 264 C-56.69640673 266.12209776 -57.38188357 268.24778527 -58.0625 270.375 C-58.44535156 271.55835938 -58.82820313 272.74171875 -59.22265625 273.9609375 C-60.32616286 276.89343206 -60.32616286 276.89343206 -59 279 C-48.11 274.05 -37.22 269.1 -26 264 C-26 263.67 -26 263.34 -26 263 C-36.03411669 262.82292735 -45.99112106 263.37722531 -56 264 Z " fill="#030101" transform="translate(423,20)"/>
</svg>
